# 3ds Max Wavefront OBJ Exporter v0.97b - (c)2007 guruware
# File Created: 07.03.2016 17:58:00

mtllib Hex.mtl

#
# object Cylinder01
#

v  0.0007 -0.0011 -0.0005
v  0.0983 -0.0011 0.1685
v  0.1959 -0.0011 -0.0005
v  0.0983 -0.0011 -0.1696
v  -0.0969 -0.0011 -0.1696
v  -0.1945 -0.0011 -0.0005
v  -0.0969 -0.0011 0.1685
# 7 vertices

vn 0.0000 1.0000 -0.0000
# 1 vertex normals

vt 0.5019 0.5004 0.0000
vt 0.2544 0.9290 0.0000
vt 0.0070 0.5004 0.0000
vt 0.2544 0.0718 0.0000
vt 0.7493 0.0718 0.0000
vt 0.9968 0.5004 0.0000
vt 0.7493 0.9290 0.0000
# 7 texture coords

g Cylinder01
usemtl wire_153228214
s 1
f 1/1/1 2/2/1 3/3/1 4/4/1 
f 1/1/1 4/4/1 5/5/1 6/6/1 
f 1/1/1 6/6/1 7/7/1 2/2/1 
# 3 polygons

